<?xml version="1.0" encoding="UTF-8"?>
<!DOCTYPE svg PUBLIC "-//W3C//DTD SVG 1.1//EN" "http://www.w3.org/Graphics/SVG/1.1/DTD/svg11.dtd">
<svg xmlns="http://www.w3.org/2000/svg" version="1.1" width="500px" height="500px" style="shape-rendering:geometricPrecision; text-rendering:geometricPrecision; image-rendering:optimizeQuality; fill-rule:evenodd; clip-rule:evenodd" xmlns:xlink="http://www.w3.org/1999/xlink">
<g><path style="opacity:0.004" fill="#000000" d="M 168.5,9.5 C 169.833,10.1667 169.833,10.1667 168.5,9.5 Z"/></g>
<g><path style="opacity:0.004" fill="#000000" d="M 35.5,11.5 C 36.8333,12.1667 36.8333,12.1667 35.5,11.5 Z"/></g>
<g><path style="opacity:0.004" fill="#000000" d="M 204.5,11.5 C 205.833,12.1667 205.833,12.1667 204.5,11.5 Z"/></g>
<g><path style="opacity:0.004" fill="#000000" d="M 233.5,11.5 C 234.833,12.1667 234.833,12.1667 233.5,11.5 Z"/></g>
<g><path style="opacity:0.004" fill="#000000" d="M 338.5,11.5 C 339.833,12.1667 339.833,12.1667 338.5,11.5 Z"/></g>
<g><path style="opacity:0.004" fill="#000000" d="M 154.5,14.5 C 155.833,15.1667 155.833,15.1667 154.5,14.5 Z"/></g>
<g><path style="opacity:0.004" fill="#000000" d="M 395.5,20.5 C 396.833,21.1667 396.833,21.1667 395.5,20.5 Z"/></g>
<g><path style="opacity:0.004" fill="#000000" d="M 477.5,26.5 C 478.833,27.1667 478.833,27.1667 477.5,26.5 Z"/></g>
<g><path style="opacity:0.004" fill="#000000" d="M 454.5,27.5 C 455.833,28.1667 455.833,28.1667 454.5,27.5 Z"/></g>
<g><path style="opacity:0.004" fill="#000000" d="M 237.5,36.5 C 238.833,37.1667 238.833,37.1667 237.5,36.5 Z"/></g>
<g><path style="opacity:0.004" fill="#000000" d="M 400.5,39.5 C 401.833,40.1667 401.833,40.1667 400.5,39.5 Z"/></g>
<g><path style="opacity:0.004" fill="#000000" d="M 417.5,43.5 C 418.833,44.1667 418.833,44.1667 417.5,43.5 Z"/></g>
<g><path style="opacity:0.004" fill="#000000" d="M 357.5,55.5 C 358.833,56.1667 358.833,56.1667 357.5,55.5 Z"/></g>
<g><path style="opacity:0.004" fill="#000000" d="M 476.5,56.5 C 477.833,57.1667 477.833,57.1667 476.5,56.5 Z"/></g>
<g><path style="opacity:0.004" fill="#000000" d="M 433.5,67.5 C 434.833,68.1667 434.833,68.1667 433.5,67.5 Z"/></g>
<g><path style="opacity:0.004" fill="#000000" d="M 295.5,71.5 C 296.833,72.1667 296.833,72.1667 295.5,71.5 Z"/></g>
<g><path style="opacity:0.004" fill="#000000" d="M 327.5,85.5 C 328.833,86.1667 328.833,86.1667 327.5,85.5 Z"/></g>
<g><path style="opacity:0.004" fill="#000000" d="M 86.5,89.5 C 87.8333,90.1667 87.8333,90.1667 86.5,89.5 Z"/></g>
<g><path style="opacity:0.993" fill="#fcfcfc" d="M 389.5,87.5 C 403.375,87.2106 410.209,94.2106 410,108.5C 409.194,111.446 407.861,114.112 406,116.5C 308.922,214.225 211.755,311.725 114.5,409C 103.873,413.125 95.706,410.291 90,400.5C 87.4089,393.893 88.4089,387.893 93,382.5C 189.97,286.197 286.137,189.364 381.5,92C 384.099,90.205 386.766,88.705 389.5,87.5 Z"/></g>
<g><path style="opacity:0.998" fill="#fefdfd" d="M 302.5,160.5 C 282.725,147.973 261.058,143.14 237.5,146C 216.388,148.3 198.055,156.467 182.5,170.5C 177.38,176.441 172.047,182.108 166.5,187.5C 149.731,209.224 142.898,233.891 146,261.5C 146.149,265.133 146.982,268.466 148.5,271.5C 151.557,282.633 156.057,293.3 162,303.5C 162.667,304.5 162.667,305.5 162,306.5C 143.986,324.847 125.653,342.847 107,360.5C 104.042,358.917 101.208,357.25 98.5,355.5C 79.8473,339.678 63.0139,322.011 48,302.5C 44.5586,297.276 41.3919,291.943 38.5,286.5C 33.6932,276.886 28.8599,267.22 24,257.5C 22.9633,254.724 22.13,251.89 21.5,249C 25.3646,238.605 30.0312,228.605 35.5,219C 35.2716,218.601 34.9382,218.435 34.5,218.5C 71.5571,154.865 125.557,114.698 196.5,98C 198.698,97.6271 200.865,97.1271 203,96.5C 203.772,96.6448 204.439,96.9781 205,97.5C 208.474,95.951 212.141,94.951 216,94.5C 217.923,95.8019 219.757,95.6352 221.5,94C 227.994,93.4172 234.494,92.9172 241,92.5C 249.114,92.8416 257.281,93.0082 265.5,93C 270.65,93.0875 275.65,93.9209 280.5,95.5C 285.412,94.4298 290.079,95.0965 294.5,97.5C 297.916,96.6836 301.082,97.3502 304,99.5C 304.561,98.9781 305.228,98.6448 306,98.5C 310.315,100.194 314.649,101.86 319,103.5C 319.414,103.043 319.914,102.709 320.5,102.5C 328.194,105.127 336.194,107.961 344.5,111C 345.991,112.91 347.491,114.077 349,114.5C 349.914,113.346 350.747,113.513 351.5,115C 336.917,130.585 321.917,145.918 306.5,161C 304.934,161.765 303.601,161.598 302.5,160.5 Z"/></g>
<g><path style="opacity:0.004" fill="#000000" d="M 61.5,98.5 C 62.8333,99.1667 62.8333,99.1667 61.5,98.5 Z"/></g>
<g><path style="opacity:0.004" fill="#000000" d="M 95.5,98.5 C 96.8333,99.1667 96.8333,99.1667 95.5,98.5 Z"/></g>
<g><path style="opacity:0.004" fill="#000000" d="M 440.5,130.5 C 441.833,131.167 441.833,131.167 440.5,130.5 Z"/></g>
<g><path style="opacity:0.004" fill="#000000" d="M 8.5,137.5 C 9.83333,138.167 9.83333,138.167 8.5,137.5 Z"/></g>
<g><path style="opacity:0.997" fill="#fdfdfd" d="M 333.5,391.5 C 316.494,396.508 299.494,400.341 282.5,403C 281.944,403.383 281.611,403.883 281.5,404.5C 237.508,410.213 195.008,404.546 154,387.5C 152.632,386.297 151.132,385.297 149.5,384.5C 148.479,383.998 148.312,383.332 149,382.5C 163.863,367.971 178.363,353.138 192.5,338C 194.913,337.516 197.246,337.85 199.5,339C 233.922,357.205 268.256,356.872 302.5,338C 325.512,323.494 341.178,303.327 349.5,277.5C 358.172,248.001 354.172,220.334 337.5,194.5C 337.062,194.565 336.728,194.399 336.5,194C 354.138,175.362 372.138,157.028 390.5,139C 391.5,138.333 392.5,138.333 393.5,139C 432.859,167.524 461.525,204.357 479.5,249.5C 451.794,317.867 403.127,365.2 333.5,391.5 Z"/></g>
<g><path style="opacity:0.004" fill="#000000" d="M 17.5,143.5 C 18.8333,144.167 18.8333,144.167 17.5,143.5 Z"/></g>
<g><path style="opacity:0.004" fill="#000000" d="M 376.5,146.5 C 377.833,147.167 377.833,147.167 376.5,146.5 Z"/></g>
<g><path style="opacity:0.024" fill="#d9d4d4" d="M 302.5,160.5 C 267.087,141.897 231.754,142.064 196.5,161C 191.934,164.414 187.268,167.58 182.5,170.5C 198.055,156.467 216.388,148.3 237.5,146C 261.058,143.14 282.725,147.973 302.5,160.5 Z"/></g>
<g><path style="opacity:0.004" fill="#000000" d="M 267.5,153.5 C 268.833,154.167 268.833,154.167 267.5,153.5 Z"/></g>
<g><path style="opacity:0.004" fill="#000000" d="M 262.5,158.5 C 263.833,159.167 263.833,159.167 262.5,158.5 Z"/></g>
<g><path style="opacity:0.004" fill="#000000" d="M 266.5,159.5 C 267.833,160.167 267.833,160.167 266.5,159.5 Z"/></g>
<g><path style="opacity:0.004" fill="#000000" d="M 223.5,174.5 C 224.833,175.167 224.833,175.167 223.5,174.5 Z"/></g>
<g><path style="opacity:0.004" fill="#000000" d="M 207.5,178.5 C 208.833,179.167 208.833,179.167 207.5,178.5 Z"/></g>
<g><path style="opacity:0.004" fill="#000000" d="M 39.5,183.5 C 40.8333,184.167 40.8333,184.167 39.5,183.5 Z"/></g>
<g><path style="opacity:0.99" fill="#fcfbfb" d="M 246.5,185.5 C 250.516,185.287 254.35,185.954 258,187.5C 261.629,186.405 264.962,187.071 268,189.5C 268.333,189.167 268.667,188.833 269,188.5C 270.973,189.64 272.807,190.973 274.5,192.5C 247.761,219.407 221.095,246.574 194.5,274C 193.5,274.667 192.5,274.667 191.5,274C 179.992,241.84 188.325,215.506 216.5,195C 223.905,191.011 231.405,188.177 239,186.5C 241.675,187.371 244.175,187.038 246.5,185.5 Z"/></g>
<g><path style="opacity:0.004" fill="#000000" d="M 191.5,197.5 C 192.833,198.167 192.833,198.167 191.5,197.5 Z"/></g>
<g><path style="opacity:0.031" fill="#cfc9c5" d="M 166.5,187.5 C 149.14,212.96 143.14,240.96 148.5,271.5C 146.982,268.466 146.149,265.133 146,261.5C 142.898,233.891 149.731,209.224 166.5,187.5 Z"/></g>
<g><path style="opacity:0.004" fill="#000000" d="M 183.5,201.5 C 184.833,202.167 184.833,202.167 183.5,201.5 Z"/></g>
<g><path style="opacity:0.024" fill="#d5d0cf" d="M 337.5,194.5 C 354.172,220.334 358.172,248.001 349.5,277.5C 355.849,248.301 351.849,220.635 337.5,194.5 Z"/></g>
<g><path style="opacity:0.99" fill="#fcfbfc" d="M 309.5,228.5 C 308.957,228.56 308.624,228.893 308.5,229.5C 312.922,245.385 312.256,261.051 306.5,276.5C 294.812,299.446 275.979,311.779 250,313.5C 244.492,312.766 238.992,311.932 233.5,311C 229.746,310.179 227.079,308.679 225.5,306.5C 225.667,305.833 225.833,305.167 226,304.5C 252.528,278.305 278.695,251.805 304.5,225C 307.084,224.738 308.751,225.905 309.5,228.5 Z"/></g>
<g><path style="opacity:0.004" fill="#000000" d="M 153.5,238.5 C 154.833,239.167 154.833,239.167 153.5,238.5 Z"/></g>
<g><path style="opacity:0.302" fill="#e0dbda" d="M 34.5,218.5 C 34.9382,218.435 35.2716,218.601 35.5,219C 30.0312,228.605 25.3646,238.605 21.5,249C 22.13,251.89 22.9633,254.724 24,257.5C 28.8599,267.22 33.6932,276.886 38.5,286.5C 30.6529,275.138 24.6529,262.804 20.5,249.5C 23.2922,238.254 27.9589,227.921 34.5,218.5 Z"/></g>
<g><path style="opacity:0.075" fill="#d8d7d7" d="M 309.5,228.5 C 313.544,241.025 314.044,253.692 311,266.5C 310.156,270.229 308.656,273.563 306.5,276.5C 312.256,261.051 312.922,245.385 308.5,229.5C 308.624,228.893 308.957,228.56 309.5,228.5 Z"/></g>
<g><path style="opacity:0.004" fill="#000000" d="M 496.5,249.5 C 497.833,250.167 497.833,250.167 496.5,249.5 Z"/></g>
<g><path style="opacity:0.004" fill="#000000" d="M 320.5,257.5 C 321.833,258.167 321.833,258.167 320.5,257.5 Z"/></g>
<g><path style="opacity:0.004" fill="#000000" d="M 163.5,292.5 C 164.833,293.167 164.833,293.167 163.5,292.5 Z"/></g>
<g><path style="opacity:0.004" fill="#000000" d="M 25.5,318.5 C 26.8333,319.167 26.8333,319.167 25.5,318.5 Z"/></g>
<g><path style="opacity:0.004" fill="#000000" d="M 33.5,320.5 C 34.8333,321.167 34.8333,321.167 33.5,320.5 Z"/></g>
<g><path style="opacity:0.004" fill="#000000" d="M 445.5,333.5 C 446.833,334.167 446.833,334.167 445.5,333.5 Z"/></g>
<g><path style="opacity:0.004" fill="#000000" d="M 98.5,355.5 C 97.8333,356.167 97.8333,356.167 98.5,355.5 Z"/></g>
<g><path style="opacity:0.004" fill="#000000" d="M 425.5,358.5 C 426.833,359.167 426.833,359.167 425.5,358.5 Z"/></g>
<g><path style="opacity:0.004" fill="#000000" d="M 409.5,359.5 C 410.833,360.167 410.833,360.167 409.5,359.5 Z"/></g>
<g><path style="opacity:0.004" fill="#000000" d="M 78.5,367.5 C 79.8333,368.167 79.8333,368.167 78.5,367.5 Z"/></g>
<g><path style="opacity:0.027" fill="#e1dcdc" d="M 333.5,391.5 C 316.818,398.004 299.485,402.337 281.5,404.5C 281.611,403.883 281.944,403.383 282.5,403C 299.494,400.341 316.494,396.508 333.5,391.5 Z"/></g>
<g><path style="opacity:0.004" fill="#000000" d="M 343.5,393.5 C 344.833,394.167 344.833,394.167 343.5,393.5 Z"/></g>
<g><path style="opacity:0.004" fill="#000000" d="M 367.5,403.5 C 368.833,404.167 368.833,404.167 367.5,403.5 Z"/></g>
<g><path style="opacity:0.004" fill="#000000" d="M 26.5,413.5 C 27.8333,414.167 27.8333,414.167 26.5,413.5 Z"/></g>
<g><path style="opacity:0.004" fill="#000000" d="M 377.5,415.5 C 378.833,416.167 378.833,416.167 377.5,415.5 Z"/></g>
<g><path style="opacity:0.004" fill="#000000" d="M 294.5,420.5 C 295.833,421.167 295.833,421.167 294.5,420.5 Z"/></g>
<g><path style="opacity:0.004" fill="#000000" d="M 462.5,428.5 C 463.833,429.167 463.833,429.167 462.5,428.5 Z"/></g>
<g><path style="opacity:0.004" fill="#000000" d="M 48.5,435.5 C 49.8333,436.167 49.8333,436.167 48.5,435.5 Z"/></g>
<g><path style="opacity:0.004" fill="#000000" d="M 12.5,436.5 C 13.8333,437.167 13.8333,437.167 12.5,436.5 Z"/></g>
<g><path style="opacity:0.004" fill="#000000" d="M 396.5,439.5 C 397.833,440.167 397.833,440.167 396.5,439.5 Z"/></g>
<g><path style="opacity:0.004" fill="#000000" d="M 4.5,457.5 C 5.83333,458.167 5.83333,458.167 4.5,457.5 Z"/></g>
<g><path style="opacity:0.004" fill="#000000" d="M 231.5,461.5 C 232.833,462.167 232.833,462.167 231.5,461.5 Z"/></g>
<g><path style="opacity:0.004" fill="#000000" d="M 318.5,471.5 C 319.833,472.167 319.833,472.167 318.5,471.5 Z"/></g>
<g><path style="opacity:0.004" fill="#000000" d="M 209.5,478.5 C 210.833,479.167 210.833,479.167 209.5,478.5 Z"/></g>
<g><path style="opacity:0.004" fill="#000000" d="M 115.5,480.5 C 116.833,481.167 116.833,481.167 115.5,480.5 Z"/></g>
<g><path style="opacity:0.004" fill="#000000" d="M 220.5,485.5 C 221.833,486.167 221.833,486.167 220.5,485.5 Z"/></g>
<g><path style="opacity:0.004" fill="#000000" d="M 96.5,499.5 C 95.8333,498.167 95.8333,498.167 96.5,499.5 Z"/></g>
</svg>
