<?xml version="1.0" encoding="UTF-8"?>
<!DOCTYPE svg PUBLIC "-//W3C//DTD SVG 1.1//EN" "http://www.w3.org/Graphics/SVG/1.1/DTD/svg11.dtd">
<svg xmlns="http://www.w3.org/2000/svg" version="1.1" width="500px" height="500px" style="shape-rendering:geometricPrecision; text-rendering:geometricPrecision; image-rendering:optimizeQuality; fill-rule:evenodd; clip-rule:evenodd" xmlns:xlink="http://www.w3.org/1999/xlink">
<g><path style="opacity:0.004" fill="#000000" d="M 143.5,-0.5 C 143.833,-0.5 144.167,-0.5 144.5,-0.5C 144.315,0.170143 143.981,0.170143 143.5,-0.5 Z"/></g>
<g><path style="opacity:0.004" fill="#000000" d="M 270.5,10.5 C 271.833,11.1667 271.833,11.1667 270.5,10.5 Z"/></g>
<g><path style="opacity:0.004" fill="#000000" d="M 312.5,11.5 C 313.833,12.1667 313.833,12.1667 312.5,11.5 Z"/></g>
<g><path style="opacity:0.004" fill="#000000" d="M 438.5,32.5 C 439.833,33.1667 439.833,33.1667 438.5,32.5 Z"/></g>
<g><path style="opacity:0.004" fill="#000000" d="M 188.5,34.5 C 189.833,35.1667 189.833,35.1667 188.5,34.5 Z"/></g>
<g><path style="opacity:0.141" fill="#d9d2d1" d="M 268.5,95.5 C 252.993,96.3019 237.327,96.9686 221.5,97.5C 223.631,96.6862 225.964,96.1862 228.5,96C 241.829,95.5001 255.163,95.3334 268.5,95.5 Z"/></g>
<g><path style="opacity:0.998" fill="#fefdfd" d="M 268.5,95.5 C 351.803,104.178 415.637,144.512 460,216.5C 465.371,227.634 470.538,238.8 475.5,250C 442.277,328.885 384.111,378.719 301,399.5C 300.667,399.167 300.333,398.833 300,398.5C 253.338,407.807 207.838,404.641 163.5,389C 157.851,386.961 152.518,384.461 147.5,381.5C 143.584,378.71 139.251,376.71 134.5,375.5C 97.4149,355.747 67.7483,328.08 45.5,292.5C 42.2247,285.903 38.558,279.57 34.5,273.5C 30.08,265.934 26.4134,257.934 23.5,249.5C 44.2391,196.056 79.9057,155.056 130.5,126.5C 138.151,123.341 145.484,119.675 152.5,115.5C 157.105,112.704 162.105,110.704 167.5,109.5C 176.283,107.074 185.116,104.741 194,102.5C 195.376,102.316 196.209,101.649 196.5,100.5C 204.172,99.1655 211.839,97.8321 219.5,96.5C 220.183,96.8627 220.85,97.1961 221.5,97.5C 237.327,96.9686 252.993,96.3019 268.5,95.5 Z M 264.5,148.5 C 287.578,153.373 307.578,164.039 324.5,180.5C 325.757,183.427 327.757,185.761 330.5,187.5C 333.445,193.104 336.779,198.438 340.5,203.5C 341.042,206.912 342.375,209.912 344.5,212.5C 345.721,218.402 347.388,224.068 349.5,229.5C 355.673,278.147 338.006,315.147 296.5,340.5C 294.62,340.229 293.287,340.896 292.5,342.5C 282.499,346.388 272.166,349.055 261.5,350.5C 222.285,354.053 190.618,340.386 166.5,309.5C 163.415,303.661 160.082,297.994 156.5,292.5C 156.598,290.447 155.931,288.78 154.5,287.5C 147.203,266.531 145.869,245.198 150.5,223.5C 153.758,214.747 157.424,206.08 161.5,197.5C 171.579,182.42 184.245,170.087 199.5,160.5C 219.928,149.928 241.594,145.928 264.5,148.5 Z"/></g>
<g><path style="opacity:0.039" fill="#d6cccc" d="M 196.5,100.5 C 196.209,101.649 195.376,102.316 194,102.5C 185.116,104.741 176.283,107.074 167.5,109.5C 176.756,105.528 186.423,102.528 196.5,100.5 Z"/></g>
<g><path style="opacity:0.004" fill="#000000" d="M -0.5,107.5 C 0.833333,108.167 0.833333,108.167 -0.5,107.5 Z"/></g>
<g><path style="opacity:0.078" fill="#cecbca" d="M 152.5,115.5 C 145.484,119.675 138.151,123.341 130.5,126.5C 137.248,121.793 144.581,118.126 152.5,115.5 Z"/></g>
<g><path style="opacity:0.22" fill="#cac1c1" d="M 264.5,148.5 C 241.594,145.928 219.928,149.928 199.5,160.5C 207.935,154.792 217.269,150.959 227.5,149C 239.954,146.005 252.287,145.839 264.5,148.5 Z"/></g>
<g><path style="opacity:0.098" fill="#ccc5c4" d="M 264.5,148.5 C 287.608,151.971 307.442,161.971 324,178.5C 324.464,179.094 324.631,179.761 324.5,180.5C 307.578,164.039 287.578,153.373 264.5,148.5 Z"/></g>
<g><path style="opacity:0.998" fill="#fefefe" d="M 267.5,190.5 C 269.279,191.574 270.946,192.907 272.5,194.5C 273.086,194.291 273.586,193.957 274,193.5C 277.808,195.653 281.642,197.653 285.5,199.5C 291.167,203.167 295.833,207.833 299.5,213.5C 304.757,222.281 308.423,231.615 310.5,241.5C 311.686,257.753 308.02,272.753 299.5,286.5C 294.801,290.17 291.134,294.17 288.5,298.5C 287.101,299.89 285.434,300.89 283.5,301.5C 263.816,311.883 243.483,313.216 222.5,305.5C 203.803,294.793 192.47,278.793 188.5,257.5C 187.194,251.401 187.194,245.401 188.5,239.5C 190.448,233.576 192.448,227.576 194.5,221.5C 202.919,208.276 214.253,198.276 228.5,191.5C 241.383,186.585 254.383,186.252 267.5,190.5 Z"/></g>
<g><path style="opacity:0.035" fill="#d6d0ce" d="M 267.5,190.5 C 274.365,191.933 280.365,194.933 285.5,199.5C 281.642,197.653 277.808,195.653 274,193.5C 273.586,193.957 273.086,194.291 272.5,194.5C 270.946,192.907 269.279,191.574 267.5,190.5 Z"/></g>
<g><path style="opacity:0.12" fill="#c9c3c3" d="M 330.5,187.5 C 335.013,192.03 338.346,197.363 340.5,203.5C 336.779,198.438 333.445,193.104 330.5,187.5 Z"/></g>
<g><path style="opacity:0.11" fill="#c3bdbb" d="M 161.5,197.5 C 157.424,206.08 153.758,214.747 150.5,223.5C 152.238,213.935 155.904,205.269 161.5,197.5 Z"/></g>
<g><path style="opacity:0.62" fill="#d5cecd" d="M 228.5,191.5 C 214.253,198.276 202.919,208.276 194.5,221.5C 199.275,211.466 206.275,203.299 215.5,197C 219.635,194.597 223.968,192.763 228.5,191.5 Z"/></g>
<g><path style="opacity:0.341" fill="#cbc3c3" d="M 344.5,212.5 C 347.544,217.662 349.211,223.328 349.5,229.5C 347.388,224.068 345.721,218.402 344.5,212.5 Z"/></g>
<g><path style="opacity:0.051" fill="#d1cccb" d="M 299.5,213.5 C 306.284,221.504 309.951,230.838 310.5,241.5C 308.423,231.615 304.757,222.281 299.5,213.5 Z"/></g>
<g><path style="opacity:0.125" fill="#ccc8c4" d="M 194.5,221.5 C 192.448,227.576 190.448,233.576 188.5,239.5C 188.727,232.819 190.727,226.819 194.5,221.5 Z"/></g>
<g><path style="opacity:0.149" fill="#cac5c3" d="M 150.5,223.5 C 145.869,245.198 147.203,266.531 154.5,287.5C 150.18,278.434 147.68,268.767 147,258.5C 145.679,246.441 146.846,234.774 150.5,223.5 Z"/></g>
<g><path style="opacity:0.016" fill="#c7c1bf" d="M 310.5,241.5 C 313.279,258.049 309.613,273.049 299.5,286.5C 308.02,272.753 311.686,257.753 310.5,241.5 Z"/></g>
<g><path style="opacity:0.067" fill="#cac4c4" d="M 188.5,257.5 C 192.47,278.793 203.803,294.793 222.5,305.5C 202.874,295.976 191.208,280.309 187.5,258.5C 187.624,257.893 187.957,257.56 188.5,257.5 Z"/></g>
<g><path style="opacity:0.004" fill="#000000" d="M 21.5,280.5 C 22.8333,281.167 22.8333,281.167 21.5,280.5 Z"/></g>
<g><path style="opacity:0.088" fill="#d1c4c4" d="M 34.5,273.5 C 38.558,279.57 42.2247,285.903 45.5,292.5C 40.6436,286.948 36.977,280.615 34.5,273.5 Z"/></g>
<g><path style="opacity:0.055" fill="#c3b6b6" d="M 299.5,286.5 C 296.564,291.105 292.898,295.105 288.5,298.5C 291.134,294.17 294.801,290.17 299.5,286.5 Z"/></g>
<g><path style="opacity:0.004" fill="#000000" d="M -0.5,303.5 C 0.833333,304.167 0.833333,304.167 -0.5,303.5 Z"/></g>
<g><path style="opacity:0.035" fill="#dfd3cf" d="M 156.5,292.5 C 160.082,297.994 163.415,303.661 166.5,309.5C 161.516,304.839 158.183,299.173 156.5,292.5 Z"/></g>
<g><path style="opacity:0.102" fill="#cdc6c5" d="M 349.5,229.5 C 356.865,268.903 345.531,302.07 315.5,329C 309.776,333.861 303.443,337.694 296.5,340.5C 338.006,315.147 355.673,278.147 349.5,229.5 Z"/></g>
<g><path style="opacity:0.399" fill="#c2b9b9" d="M 283.5,301.5 C 273.76,309.024 262.594,312.69 250,312.5C 242.704,312.06 235.537,310.894 228.5,309C 226.121,308.284 224.121,307.117 222.5,305.5C 243.483,313.216 263.816,311.883 283.5,301.5 Z"/></g>
<g><path style="opacity:0.004" fill="#000000" d="M 424.5,342.5 C 425.833,343.167 425.833,343.167 424.5,342.5 Z"/></g>
<g><path style="opacity:0.188" fill="#dad5d1" d="M 292.5,342.5 C 282.804,348.173 272.471,350.84 261.5,350.5C 272.166,349.055 282.499,346.388 292.5,342.5 Z"/></g>
<g><path style="opacity:0.004" fill="#000000" d="M 19.5,352.5 C 20.8333,353.167 20.8333,353.167 19.5,352.5 Z"/></g>
<g><path style="opacity:0.004" fill="#000000" d="M 386.5,366.5 C 387.833,367.167 387.833,367.167 386.5,366.5 Z"/></g>
<g><path style="opacity:0.004" fill="#000000" d="M 6.5,369.5 C 7.83333,370.167 7.83333,370.167 6.5,369.5 Z"/></g>
<g><path style="opacity:0.004" fill="#000000" d="M 453.5,376.5 C 454.833,377.167 454.833,377.167 453.5,376.5 Z"/></g>
<g><path style="opacity:0.047" fill="#cdc0c0" d="M 134.5,375.5 C 139.251,376.71 143.584,378.71 147.5,381.5C 142.749,380.29 138.416,378.29 134.5,375.5 Z"/></g>
<g><path style="opacity:0.004" fill="#000000" d="M 395.5,379.5 C 396.833,380.167 396.833,380.167 395.5,379.5 Z"/></g>
<g><path style="opacity:0.004" fill="#000000" d="M 341.5,402.5 C 342.833,403.167 342.833,403.167 341.5,402.5 Z"/></g>
<g><path style="opacity:0.004" fill="#000000" d="M 307.5,403.5 C 308.833,404.167 308.833,404.167 307.5,403.5 Z"/></g>
<g><path style="opacity:0.004" fill="#000000" d="M 355.5,410.5 C 356.833,411.167 356.833,411.167 355.5,410.5 Z"/></g>
<g><path style="opacity:0.004" fill="#000000" d="M 291.5,412.5 C 292.833,413.167 292.833,413.167 291.5,412.5 Z"/></g>
<g><path style="opacity:0.004" fill="#000000" d="M 240.5,421.5 C 241.833,422.167 241.833,422.167 240.5,421.5 Z"/></g>
<g><path style="opacity:0.004" fill="#000000" d="M 231.5,425.5 C 232.833,426.167 232.833,426.167 231.5,425.5 Z"/></g>
<g><path style="opacity:0.004" fill="#000000" d="M 188.5,433.5 C 189.833,434.167 189.833,434.167 188.5,433.5 Z"/></g>
<g><path style="opacity:0.004" fill="#000000" d="M 175.5,440.5 C 176.833,441.167 176.833,441.167 175.5,440.5 Z"/></g>
<g><path style="opacity:0.004" fill="#000000" d="M 456.5,441.5 C 457.833,442.167 457.833,442.167 456.5,441.5 Z"/></g>
<g><path style="opacity:0.004" fill="#000000" d="M 395.5,455.5 C 396.833,456.167 396.833,456.167 395.5,455.5 Z"/></g>
<g><path style="opacity:0.004" fill="#000000" d="M 115.5,462.5 C 116.833,463.167 116.833,463.167 115.5,462.5 Z"/></g>
<g><path style="opacity:0.004" fill="#000000" d="M 470.5,465.5 C 471.833,466.167 471.833,466.167 470.5,465.5 Z"/></g>
<g><path style="opacity:0.004" fill="#000000" d="M 250.5,466.5 C 251.833,467.167 251.833,467.167 250.5,466.5 Z"/></g>
<g><path style="opacity:0.004" fill="#000000" d="M 347.5,470.5 C 348.833,471.167 348.833,471.167 347.5,470.5 Z"/></g>
<g><path style="opacity:0.004" fill="#000000" d="M 462.5,475.5 C 463.833,476.167 463.833,476.167 462.5,475.5 Z"/></g>
<g><path style="opacity:0.004" fill="#000000" d="M 222.5,479.5 C 223.833,480.167 223.833,480.167 222.5,479.5 Z"/></g>
<g><path style="opacity:0.004" fill="#000000" d="M 307.5,480.5 C 308.833,481.167 308.833,481.167 307.5,480.5 Z"/></g>
<g><path style="opacity:0.004" fill="#000000" d="M 423.5,484.5 C 424.833,485.167 424.833,485.167 423.5,484.5 Z"/></g>
<g><path style="opacity:0.004" fill="#000000" d="M 117.5,496.5 C 118.833,497.167 118.833,497.167 117.5,496.5 Z"/></g>
<g><path style="opacity:0.004" fill="#000000" d="M 152.5,496.5 C 153.833,497.167 153.833,497.167 152.5,496.5 Z"/></g>
</svg>
